solid shape, STL ascii file, created with Open CASCADE Technology
 facet normal 1.000000e+00 0.000000e+00 0.000000e+00
   outer loop
     vertex 2.310000e-02 -1.183156e-02 1.374255e-03
     vertex 2.310000e-02 -1.150000e-02 1.500000e-03
     vertex 2.310000e-02 -1.161966e-02 1.485471e-03
   endloop
 endfacet
 facet normal 1.000000e+00 0.000000e+00 0.000000e+00
   outer loop
     vertex 2.310000e-02 -1.183156e-02 1.374255e-03
     vertex 2.310000e-02 -1.161966e-02 1.485471e-03
     vertex 2.310000e-02 -1.173236e-02 1.442728e-03
   endloop
 endfacet
 facet normal 1.000000e+00 0.000000e+00 0.000000e+00
   outer loop
     vertex 2.310000e-02 -1.183156e-02 1.374255e-03
     vertex 2.310000e-02 -1.191149e-02 1.284032e-03
     vertex 2.310000e-02 -1.196751e-02 1.177302e-03
   endloop
 endfacet
 facet normal 1.000000e+00 0.000000e+00 0.000000e+00
   outer loop
     vertex 2.310000e-02 -1.183156e-02 1.374255e-03
     vertex 2.310000e-02 -1.196751e-02 1.177302e-03
     vertex 2.310000e-02 -1.199635e-02 1.060268e-03
   endloop
 endfacet
 facet normal 1.000000e+00 0.000000e+00 0.000000e+00
   outer loop
     vertex 2.310000e-02 -1.183156e-02 1.374255e-03
     vertex 2.310000e-02 -1.199635e-02 1.060268e-03
     vertex 2.310000e-02 -1.199635e-02 9.397317e-04
   endloop
 endfacet
 facet normal 1.000000e+00 0.000000e+00 0.000000e+00
   outer loop
     vertex 2.310000e-02 -1.183156e-02 1.374255e-03
     vertex 2.310000e-02 -1.199635e-02 9.397317e-04
     vertex 2.310000e-02 -1.196751e-02 8.226976e-04
   endloop
 endfacet
 facet normal 1.000000e+00 0.000000e+00 0.000000e+00
   outer loop
     vertex 2.310000e-02 -1.183156e-02 1.374255e-03
     vertex 2.310000e-02 -1.196751e-02 8.226976e-04
     vertex 2.310000e-02 -1.191149e-02 7.159676e-04
   endloop
 endfacet
 facet normal 1.000000e+00 0.000000e+00 0.000000e+00
   outer loop
     vertex 2.310000e-02 -1.183156e-02 1.374255e-03
     vertex 2.310000e-02 -1.191149e-02 7.159676e-04
     vertex 2.310000e-02 -1.183156e-02 6.257446e-04
   endloop
 endfacet
 facet normal 1.000000e+00 0.000000e+00 0.000000e+00
   outer loop
     vertex 2.310000e-02 -1.183156e-02 1.374255e-03
     vertex 2.310000e-02 -1.183156e-02 6.257446e-04
     vertex 2.310000e-02 -1.173236e-02 5.572720e-04
   endloop
 endfacet
 facet normal 1.000000e+00 0.000000e+00 0.000000e+00
   outer loop
     vertex 2.310000e-02 -1.183156e-02 1.374255e-03
     vertex 2.310000e-02 -1.173236e-02 5.572720e-04
     vertex 2.310000e-02 -1.161966e-02 5.145291e-04
   endloop
 endfacet
 facet normal 1.000000e+00 0.000000e+00 0.000000e+00
   outer loop
     vertex 2.310000e-02 -1.183156e-02 1.374255e-03
     vertex 2.310000e-02 -1.161966e-02 5.145291e-04
     vertex 2.310000e-02 -1.150000e-02 5.000000e-04
   endloop
 endfacet
 facet normal 1.000000e+00 0.000000e+00 0.000000e+00
   outer loop
     vertex 2.310000e-02 -1.183156e-02 1.374255e-03
     vertex 2.310000e-02 -1.150000e-02 5.000000e-04
     vertex 2.310000e-02 -1.138034e-02 5.145291e-04
   endloop
 endfacet
 facet normal 1.000000e+00 0.000000e+00 0.000000e+00
   outer loop
     vertex 2.310000e-02 -1.183156e-02 1.374255e-03
     vertex 2.310000e-02 -1.138034e-02 5.145291e-04
     vertex 2.310000e-02 -1.126764e-02 5.572720e-04
   endloop
 endfacet
 facet normal 1.000000e+00 0.000000e+00 0.000000e+00
   outer loop
     vertex 2.310000e-02 -1.183156e-02 1.374255e-03
     vertex 2.310000e-02 -1.126764e-02 5.572720e-04
     vertex 2.310000e-02 -1.116844e-02 6.257446e-04
   endloop
 endfacet
 facet normal 1.000000e+00 0.000000e+00 0.000000e+00
   outer loop
     vertex 2.310000e-02 -1.183156e-02 1.374255e-03
     vertex 2.310000e-02 -1.116844e-02 6.257446e-04
     vertex 2.310000e-02 -1.108851e-02 7.159676e-04
   endloop
 endfacet
 facet normal 1.000000e+00 0.000000e+00 0.000000e+00
   outer loop
     vertex 2.310000e-02 -1.183156e-02 1.374255e-03
     vertex 2.310000e-02 -1.108851e-02 7.159676e-04
     vertex 2.310000e-02 -1.103249e-02 8.226976e-04
   endloop
 endfacet
 facet normal 1.000000e+00 0.000000e+00 0.000000e+00
   outer loop
     vertex 2.310000e-02 -1.183156e-02 1.374255e-03
     vertex 2.310000e-02 -1.103249e-02 8.226976e-04
     vertex 2.310000e-02 -1.100365e-02 9.397317e-04
   endloop
 endfacet
 facet normal 1.000000e+00 0.000000e+00 0.000000e+00
   outer loop
     vertex 2.310000e-02 -1.183156e-02 1.374255e-03
     vertex 2.310000e-02 -1.100365e-02 9.397317e-04
     vertex 2.310000e-02 -1.100365e-02 1.060268e-03
   endloop
 endfacet
 facet normal 1.000000e+00 0.000000e+00 0.000000e+00
   outer loop
     vertex 2.310000e-02 -1.183156e-02 1.374255e-03
     vertex 2.310000e-02 -1.100365e-02 1.060268e-03
     vertex 2.310000e-02 -1.103249e-02 1.177302e-03
   endloop
 endfacet
 facet normal 1.000000e+00 0.000000e+00 0.000000e+00
   outer loop
     vertex 2.310000e-02 -1.183156e-02 1.374255e-03
     vertex 2.310000e-02 -1.103249e-02 1.177302e-03
     vertex 2.310000e-02 -1.108851e-02 1.284032e-03
   endloop
 endfacet
 facet normal 1.000000e+00 0.000000e+00 0.000000e+00
   outer loop
     vertex 2.310000e-02 -1.183156e-02 1.374255e-03
     vertex 2.310000e-02 -1.108851e-02 1.284032e-03
     vertex 2.310000e-02 -1.116844e-02 1.374255e-03
   endloop
 endfacet
 facet normal 1.000000e+00 -0.000000e+00 0.000000e+00
   outer loop
     vertex 2.310000e-02 -1.183156e-02 1.374255e-03
     vertex 2.310000e-02 -1.116844e-02 1.374255e-03
     vertex 2.310000e-02 -1.126764e-02 1.442728e-03
   endloop
 endfacet
 facet normal 1.000000e+00 0.000000e+00 0.000000e+00
   outer loop
     vertex 2.310000e-02 -1.183156e-02 1.374255e-03
     vertex 2.310000e-02 -1.126764e-02 1.442728e-03
     vertex 2.310000e-02 -1.138034e-02 1.485471e-03
   endloop
 endfacet
 facet normal 1.000000e+00 0.000000e+00 0.000000e+00
   outer loop
     vertex 2.310000e-02 -1.183156e-02 1.374255e-03
     vertex 2.310000e-02 -1.138034e-02 1.485471e-03
     vertex 2.310000e-02 -1.150000e-02 1.500000e-03
   endloop
 endfacet
 facet normal 9.644221e-05 3.546049e-01 -9.350162e-01
   outer loop
     vertex 2.310000e-02 -1.126764e-02 5.572720e-04
     vertex 2.310000e-02 -1.138034e-02 5.145291e-04
     vertex -1.102615e-02 -1.134042e-02 5.261491e-04
   endloop
 endfacet
 facet normal -4.563521e-06 3.949822e-01 -9.186888e-01
   outer loop
     vertex 2.310000e-02 -1.126764e-02 5.572720e-04
     vertex -1.102615e-02 -1.134042e-02 5.261491e-04
     vertex -1.105819e-02 -1.126590e-02 5.581906e-04
   endloop
 endfacet
 facet normal 4.789864e-06 5.383458e-01 -8.427240e-01
   outer loop
     vertex 2.310000e-02 -1.126764e-02 5.572720e-04
     vertex -1.105819e-02 -1.126590e-02 5.581906e-04
     vertex -1.110186e-02 -1.119753e-02 6.018614e-04
   endloop
 endfacet
 facet normal -4.789024e-05 6.675092e-01 -7.446016e-01
   outer loop
     vertex 2.310000e-02 -1.116844e-02 6.257446e-04
     vertex -1.110186e-02 -1.119753e-02 6.018614e-04
     vertex -1.115601e-02 -1.113713e-02 6.560123e-04
   endloop
 endfacet
 facet normal 9.144098e-05 5.680647e-01 -8.229839e-01
   outer loop
     vertex 2.310000e-02 -1.116844e-02 6.257446e-04
     vertex 2.310000e-02 -1.126764e-02 5.572720e-04
     vertex -1.110186e-02 -1.119753e-02 6.018614e-04
   endloop
 endfacet
 facet normal 0.000000e+00 -8.112082e-02 9.967043e-01
   outer loop
     vertex 2.310000e-02 -1.150000e-02 1.500000e-03
     vertex -1.100000e-02 -1.150000e-02 1.500000e-03
     vertex -1.100658e-02 -1.158085e-02 1.493419e-03
   endloop
 endfacet
 facet normal -8.859493e-06 7.791469e-01 -6.268413e-01
   outer loop
     vertex 2.310000e-02 -1.108851e-02 7.159676e-04
     vertex -1.115601e-02 -1.113713e-02 6.560123e-04
     vertex -1.121922e-02 -1.108628e-02 7.192177e-04
   endloop
 endfacet
 facet normal 1.285223e-05 8.832798e-01 -4.688463e-01
   outer loop
     vertex 2.310000e-02 -1.108851e-02 7.159676e-04
     vertex -1.121922e-02 -1.108628e-02 7.192177e-04
     vertex -1.131467e-02 -1.103561e-02 8.146719e-04
   endloop
 endfacet
 facet normal 9.812734e-05 7.485107e-01 -6.631227e-01
   outer loop
     vertex 2.310000e-02 -1.108851e-02 7.159676e-04
     vertex 2.310000e-02 -1.116844e-02 6.257446e-04
     vertex -1.115601e-02 -1.113713e-02 6.560123e-04
   endloop
 endfacet
 facet normal -4.827315e-05 -2.412159e-01 9.704715e-01
   outer loop
     vertex 2.310000e-02 -1.161966e-02 1.485471e-03
     vertex -1.100658e-02 -1.158085e-02 1.493419e-03
     vertex -1.102615e-02 -1.165958e-02 1.473851e-03
   endloop
 endfacet
 facet normal -2.156787e-05 9.597158e-01 -2.809725e-01
   outer loop
     vertex 2.310000e-02 -1.103249e-02 8.226976e-04
     vertex -1.131467e-02 -1.103561e-02 8.146719e-04
     vertex -1.140564e-02 -1.100898e-02 9.056404e-04
   endloop
 endfacet
 facet normal 9.421058e-05 -1.205367e-01 9.927089e-01
   outer loop
     vertex 2.310000e-02 -1.161966e-02 1.485471e-03
     vertex 2.310000e-02 -1.150000e-02 1.500000e-03
     vertex -1.100658e-02 -1.158085e-02 1.493419e-03
   endloop
 endfacet
 facet normal 2.802254e-05 8.854560e-01 -4.647232e-01
   outer loop
     vertex 2.310000e-02 -1.103249e-02 8.226976e-04
     vertex 2.310000e-02 -1.108851e-02 7.159676e-04
     vertex -1.131467e-02 -1.103561e-02 8.146719e-04
   endloop
 endfacet
 facet normal -6.032053e-05 9.954919e-01 -9.484613e-02
   outer loop
     vertex 2.310000e-02 -1.100365e-02 9.397317e-04
     vertex -1.140564e-02 -1.100898e-02 9.056404e-04
     vertex -1.150000e-02 -1.100000e-02 1.000000e-03
   endloop
 endfacet
 facet normal 8.621254e-05 9.709418e-01 -2.393157e-01
   outer loop
     vertex 2.310000e-02 -1.100365e-02 9.397317e-04
     vertex 2.310000e-02 -1.103249e-02 8.226976e-04
     vertex -1.140564e-02 -1.100898e-02 9.056404e-04
   endloop
 endfacet
 facet normal -4.563521e-06 -3.949822e-01 9.186888e-01
   outer loop
     vertex 2.310000e-02 -1.173236e-02 1.442728e-03
     vertex -1.102615e-02 -1.165958e-02 1.473851e-03
     vertex -1.105819e-02 -1.173410e-02 1.441809e-03
   endloop
 endfacet
 facet normal 4.789864e-06 -5.383458e-01 8.427240e-01
   outer loop
     vertex 2.310000e-02 -1.173236e-02 1.442728e-03
     vertex -1.105819e-02 -1.173410e-02 1.441809e-03
     vertex -1.110186e-02 -1.180247e-02 1.398139e-03
   endloop
 endfacet
 facet normal 9.644221e-05 -3.546049e-01 9.350162e-01
   outer loop
     vertex 2.310000e-02 -1.173236e-02 1.442728e-03
     vertex 2.310000e-02 -1.161966e-02 1.485471e-03
     vertex -1.102615e-02 -1.165958e-02 1.473851e-03
   endloop
 endfacet
 facet normal -1.231091e-04 9.914289e-01 1.306472e-01
   outer loop
     vertex 2.310000e-02 -1.100365e-02 1.060268e-03
     vertex -1.150000e-02 -1.100000e-02 1.000000e-03
     vertex -1.137059e-02 -1.101704e-02 1.129410e-03
   endloop
 endfacet
 facet normal 1.053631e-04 1.000000e+00 0.000000e+00
   outer loop
     vertex 2.310000e-02 -1.100365e-02 1.060268e-03
     vertex 2.310000e-02 -1.100365e-02 9.397317e-04
     vertex -1.150000e-02 -1.100000e-02 1.000000e-03
   endloop
 endfacet
 facet normal -4.789024e-05 -6.675092e-01 7.446016e-01
   outer loop
     vertex 2.310000e-02 -1.183156e-02 1.374255e-03
     vertex -1.110186e-02 -1.180247e-02 1.398139e-03
     vertex -1.115601e-02 -1.186287e-02 1.343988e-03
   endloop
 endfacet
 facet normal 9.144098e-05 -5.680647e-01 8.229839e-01
   outer loop
     vertex 2.310000e-02 -1.183156e-02 1.374255e-03
     vertex 2.310000e-02 -1.173236e-02 1.442728e-03
     vertex -1.110186e-02 -1.180247e-02 1.398139e-03
   endloop
 endfacet
 facet normal -1.176340e-04 9.238379e-01 3.827838e-01
   outer loop
     vertex 2.310000e-02 -1.103249e-02 1.177302e-03
     vertex -1.137059e-02 -1.101704e-02 1.129410e-03
     vertex -1.125000e-02 -1.106699e-02 1.250000e-03
   endloop
 endfacet
 facet normal 1.028174e-04 9.709418e-01 2.393157e-01
   outer loop
     vertex 2.310000e-02 -1.103249e-02 1.177302e-03
     vertex 2.310000e-02 -1.100365e-02 1.060268e-03
     vertex -1.137059e-02 -1.101704e-02 1.129410e-03
   endloop
 endfacet
 facet normal -8.859493e-06 -7.791469e-01 6.268413e-01
   outer loop
     vertex 2.310000e-02 -1.191149e-02 1.284032e-03
     vertex -1.115601e-02 -1.186287e-02 1.343988e-03
     vertex -1.121922e-02 -1.191372e-02 1.280782e-03
   endloop
 endfacet
 facet normal 1.285223e-05 -8.832798e-01 4.688463e-01
   outer loop
     vertex 2.310000e-02 -1.191149e-02 1.284032e-03
     vertex -1.121922e-02 -1.191372e-02 1.280782e-03
     vertex -1.131467e-02 -1.196439e-02 1.185328e-03
   endloop
 endfacet
 facet normal 9.812734e-05 -7.485107e-01 6.631227e-01
   outer loop
     vertex 2.310000e-02 -1.191149e-02 1.284032e-03
     vertex 2.310000e-02 -1.183156e-02 1.374255e-03
     vertex -1.115601e-02 -1.186287e-02 1.343988e-03
   endloop
 endfacet
 facet normal -1.061834e-04 7.933021e-01 6.088283e-01
   outer loop
     vertex 2.310000e-02 -1.108851e-02 1.284032e-03
     vertex -1.125000e-02 -1.106699e-02 1.250000e-03
     vertex -1.114645e-02 -1.114645e-02 1.353553e-03
   endloop
 endfacet
 facet normal 9.432495e-05 8.854560e-01 4.647232e-01
   outer loop
     vertex 2.310000e-02 -1.108851e-02 1.284032e-03
     vertex 2.310000e-02 -1.103249e-02 1.177302e-03
     vertex -1.125000e-02 -1.106699e-02 1.250000e-03
   endloop
 endfacet
 facet normal -2.156787e-05 -9.597158e-01 2.809725e-01
   outer loop
     vertex 2.310000e-02 -1.196751e-02 1.177302e-03
     vertex -1.131467e-02 -1.196439e-02 1.185328e-03
     vertex -1.140564e-02 -1.199102e-02 1.094360e-03
   endloop
 endfacet
 facet normal -7.720229e-05 6.190564e-01 7.853465e-01
   outer loop
     vertex 2.310000e-02 -1.116844e-02 1.374255e-03
     vertex -1.114645e-02 -1.114645e-02 1.353553e-03
     vertex -1.107368e-02 -1.123875e-02 1.426320e-03
   endloop
 endfacet
 facet normal 2.802254e-05 -8.854560e-01 4.647232e-01
   outer loop
     vertex 2.310000e-02 -1.196751e-02 1.177302e-03
     vertex 2.310000e-02 -1.191149e-02 1.284032e-03
     vertex -1.131467e-02 -1.196439e-02 1.185328e-03
   endloop
 endfacet
 facet normal 7.981383e-05 7.485107e-01 6.631227e-01
   outer loop
     vertex 2.310000e-02 -1.116844e-02 1.374255e-03
     vertex 2.310000e-02 -1.108851e-02 1.284032e-03
     vertex -1.114645e-02 -1.114645e-02 1.353553e-03
   endloop
 endfacet
 facet normal -6.032053e-05 -9.954919e-01 9.484613e-02
   outer loop
     vertex 2.310000e-02 -1.199635e-02 1.060268e-03
     vertex -1.140564e-02 -1.199102e-02 1.094360e-03
     vertex -1.150000e-02 -1.200000e-02 1.000000e-03
   endloop
 endfacet
 facet normal 8.621254e-05 -9.709418e-01 2.393157e-01
   outer loop
     vertex 2.310000e-02 -1.199635e-02 1.060268e-03
     vertex 2.310000e-02 -1.196751e-02 1.177302e-03
     vertex -1.140564e-02 -1.199102e-02 1.094360e-03
   endloop
 endfacet
 facet normal -6.045265e-05 4.388571e-01 8.985569e-01
   outer loop
     vertex 2.310000e-02 -1.126764e-02 1.442728e-03
     vertex -1.107368e-02 -1.123875e-02 1.426320e-03
     vertex -1.103186e-02 -1.132437e-02 1.468137e-03
   endloop
 endfacet
 facet normal -1.231091e-04 -9.914289e-01 -1.306472e-01
   outer loop
     vertex 2.310000e-02 -1.199635e-02 9.397317e-04
     vertex -1.150000e-02 -1.200000e-02 1.000000e-03
     vertex -1.137059e-02 -1.198296e-02 8.705905e-04
   endloop
 endfacet
 facet normal 8.505434e-05 5.680647e-01 8.229839e-01
   outer loop
     vertex 2.310000e-02 -1.126764e-02 1.442728e-03
     vertex 2.310000e-02 -1.116844e-02 1.374255e-03
     vertex -1.107368e-02 -1.123875e-02 1.426320e-03
   endloop
 endfacet
 facet normal 1.053631e-04 -1.000000e+00 0.000000e+00
   outer loop
     vertex 2.310000e-02 -1.199635e-02 9.397317e-04
     vertex 2.310000e-02 -1.199635e-02 1.060268e-03
     vertex -1.150000e-02 -1.200000e-02 1.000000e-03
   endloop
 endfacet
 facet normal -4.680063e-05 2.696514e-01 9.629580e-01
   outer loop
     vertex 2.310000e-02 -1.138034e-02 1.485471e-03
     vertex -1.103186e-02 -1.132437e-02 1.468137e-03
     vertex -1.100873e-02 -1.140697e-02 1.491268e-03
   endloop
 endfacet
 facet normal 5.908474e-05 1.399180e-01 9.901631e-01
   outer loop
     vertex 2.310000e-02 -1.138034e-02 1.485471e-03
     vertex -1.100873e-02 -1.140697e-02 1.491268e-03
     vertex -1.100219e-02 -1.145328e-02 1.497812e-03
   endloop
 endfacet
 facet normal 1.028174e-04 -9.709418e-01 -2.393157e-01
   outer loop
     vertex 2.310000e-02 -1.196751e-02 8.226976e-04
     vertex 2.310000e-02 -1.199635e-02 9.397317e-04
     vertex -1.137059e-02 -1.198296e-02 8.705905e-04
   endloop
 endfacet
 facet normal 1.067151e-04 3.546049e-01 9.350162e-01
   outer loop
     vertex 2.310000e-02 -1.138034e-02 1.485471e-03
     vertex 2.310000e-02 -1.126764e-02 1.442728e-03
     vertex -1.103186e-02 -1.132437e-02 1.468137e-03
   endloop
 endfacet
 facet normal -1.176340e-04 -9.238379e-01 -3.827838e-01
   outer loop
     vertex 2.310000e-02 -1.196751e-02 8.226976e-04
     vertex -1.137059e-02 -1.198296e-02 8.705905e-04
     vertex -1.125000e-02 -1.193301e-02 7.500000e-04
   endloop
 endfacet
 facet normal 0.000000e+00 4.677302e-02 9.989055e-01
   outer loop
     vertex 2.310000e-02 -1.150000e-02 1.500000e-03
     vertex -1.100219e-02 -1.145328e-02 1.497812e-03
     vertex -1.100000e-02 -1.150000e-02 1.500000e-03
   endloop
 endfacet
 facet normal 1.014577e-04 1.205367e-01 9.927089e-01
   outer loop
     vertex 2.310000e-02 -1.150000e-02 1.500000e-03
     vertex 2.310000e-02 -1.138034e-02 1.485471e-03
     vertex -1.100219e-02 -1.145328e-02 1.497812e-03
   endloop
 endfacet
 facet normal 9.432495e-05 -8.854560e-01 -4.647232e-01
   outer loop
     vertex 2.310000e-02 -1.191149e-02 7.159676e-04
     vertex 2.310000e-02 -1.196751e-02 8.226976e-04
     vertex -1.125000e-02 -1.193301e-02 7.500000e-04
   endloop
 endfacet
 facet normal -1.061834e-04 -7.933021e-01 -6.088283e-01
   outer loop
     vertex 2.310000e-02 -1.191149e-02 7.159676e-04
     vertex -1.125000e-02 -1.193301e-02 7.500000e-04
     vertex -1.114645e-02 -1.185355e-02 6.464466e-04
   endloop
 endfacet
 facet normal 7.981383e-05 -7.485107e-01 -6.631227e-01
   outer loop
     vertex 2.310000e-02 -1.183156e-02 6.257446e-04
     vertex 2.310000e-02 -1.191149e-02 7.159676e-04
     vertex -1.114645e-02 -1.185355e-02 6.464466e-04
   endloop
 endfacet
 facet normal -7.720229e-05 -6.190564e-01 -7.853465e-01
   outer loop
     vertex 2.310000e-02 -1.183156e-02 6.257446e-04
     vertex -1.114645e-02 -1.185355e-02 6.464466e-04
     vertex -1.107368e-02 -1.176125e-02 5.736799e-04
   endloop
 endfacet
 facet normal 8.505434e-05 -5.680647e-01 -8.229839e-01
   outer loop
     vertex 2.310000e-02 -1.173236e-02 5.572720e-04
     vertex 2.310000e-02 -1.183156e-02 6.257446e-04
     vertex -1.107368e-02 -1.176125e-02 5.736799e-04
   endloop
 endfacet
 facet normal -6.045265e-05 -4.388571e-01 -8.985569e-01
   outer loop
     vertex 2.310000e-02 -1.173236e-02 5.572720e-04
     vertex -1.107368e-02 -1.176125e-02 5.736799e-04
     vertex -1.103186e-02 -1.167563e-02 5.318629e-04
   endloop
 endfacet
 facet normal 1.067151e-04 -3.546049e-01 -9.350162e-01
   outer loop
     vertex 2.310000e-02 -1.161966e-02 5.145291e-04
     vertex 2.310000e-02 -1.173236e-02 5.572720e-04
     vertex -1.103186e-02 -1.167563e-02 5.318629e-04
   endloop
 endfacet
 facet normal -4.680063e-05 -2.696514e-01 -9.629580e-01
   outer loop
     vertex 2.310000e-02 -1.161966e-02 5.145291e-04
     vertex -1.103186e-02 -1.167563e-02 5.318629e-04
     vertex -1.100873e-02 -1.159303e-02 5.087317e-04
   endloop
 endfacet
 facet normal 5.908474e-05 -1.399180e-01 -9.901631e-01
   outer loop
     vertex 2.310000e-02 -1.161966e-02 5.145291e-04
     vertex -1.100873e-02 -1.159303e-02 5.087317e-04
     vertex -1.100219e-02 -1.154672e-02 5.021877e-04
   endloop
 endfacet
 facet normal 0.000000e+00 8.112082e-02 -9.967043e-01
   outer loop
     vertex 2.310000e-02 -1.150000e-02 5.000000e-04
     vertex -1.100000e-02 -1.150000e-02 5.000000e-04
     vertex -1.100658e-02 -1.141915e-02 5.065806e-04
   endloop
 endfacet
 facet normal -0.000000e+00 -4.677302e-02 -9.989055e-01
   outer loop
     vertex 2.310000e-02 -1.150000e-02 5.000000e-04
     vertex -1.100219e-02 -1.154672e-02 5.021877e-04
     vertex -1.100000e-02 -1.150000e-02 5.000000e-04
   endloop
 endfacet
 facet normal 1.014577e-04 -1.205367e-01 -9.927089e-01
   outer loop
     vertex 2.310000e-02 -1.150000e-02 5.000000e-04
     vertex 2.310000e-02 -1.161966e-02 5.145291e-04
     vertex -1.100219e-02 -1.154672e-02 5.021877e-04
   endloop
 endfacet
 facet normal -4.827315e-05 2.412159e-01 -9.704715e-01
   outer loop
     vertex 2.310000e-02 -1.138034e-02 5.145291e-04
     vertex -1.100658e-02 -1.141915e-02 5.065806e-04
     vertex -1.102615e-02 -1.134042e-02 5.261491e-04
   endloop
 endfacet
 facet normal 9.421058e-05 1.205367e-01 -9.927089e-01
   outer loop
     vertex 2.310000e-02 -1.138034e-02 5.145291e-04
     vertex 2.310000e-02 -1.150000e-02 5.000000e-04
     vertex -1.100658e-02 -1.141915e-02 5.065806e-04
   endloop
 endfacet
 facet normal -6.037850e-02 9.981756e-01 0.000000e+00
   outer loop
     vertex -1.156027e-02 -1.100365e-02 3.360000e-02
     vertex -1.150000e-02 -1.100000e-02 1.000000e-03
     vertex -1.156027e-02 -1.100365e-02 5.000000e-04
   endloop
 endfacet
 facet normal -0.000000e+00 1.000000e+00 1.118271e-04
   outer loop
     vertex -1.156027e-02 -1.100365e-02 3.360000e-02
     vertex -1.143973e-02 -1.100365e-02 3.360000e-02
     vertex -1.150000e-02 -1.100000e-02 1.000000e-03
   endloop
 endfacet
 facet normal -2.393157e-01 9.709418e-01 0.000000e+00
   outer loop
     vertex -1.167730e-02 -1.103249e-02 3.360000e-02
     vertex -1.156027e-02 -1.100365e-02 5.000000e-04
     vertex -1.167730e-02 -1.103249e-02 5.000000e-04
   endloop
 endfacet
 facet normal -2.393157e-01 9.709418e-01 0.000000e+00
   outer loop
     vertex -1.167730e-02 -1.103249e-02 3.360000e-02
     vertex -1.156027e-02 -1.100365e-02 3.360000e-02
     vertex -1.156027e-02 -1.100365e-02 5.000000e-04
   endloop
 endfacet
 facet normal 8.223442e-01 -5.676232e-01 -3.941862e-02
   outer loop
     vertex -1.105727e-02 -1.173236e-02 5.000000e-04
     vertex -1.107368e-02 -1.176125e-02 5.736799e-04
     vertex -1.112574e-02 -1.183156e-02 5.000000e-04
   endloop
 endfacet
 facet normal -4.647232e-01 8.854560e-01 0.000000e+00
   outer loop
     vertex -1.178403e-02 -1.108851e-02 3.360000e-02
     vertex -1.167730e-02 -1.103249e-02 5.000000e-04
     vertex -1.178403e-02 -1.108851e-02 5.000000e-04
   endloop
 endfacet
 facet normal -4.647232e-01 8.854560e-01 0.000000e+00
   outer loop
     vertex -1.178403e-02 -1.108851e-02 3.360000e-02
     vertex -1.167730e-02 -1.103249e-02 3.360000e-02
     vertex -1.167730e-02 -1.103249e-02 5.000000e-04
   endloop
 endfacet
 facet normal 6.268417e-01 -7.791467e-01 -9.407795e-06
   outer loop
     vertex -1.121597e-02 -1.191149e-02 3.360000e-02
     vertex -1.121922e-02 -1.191372e-02 1.280782e-03
     vertex -1.115601e-02 -1.186287e-02 1.343988e-03
   endloop
 endfacet
 facet normal -6.631227e-01 7.485107e-01 0.000000e+00
   outer loop
     vertex -1.187426e-02 -1.116844e-02 3.360000e-02
     vertex -1.178403e-02 -1.108851e-02 5.000000e-04
     vertex -1.187426e-02 -1.116844e-02 5.000000e-04
   endloop
 endfacet
 facet normal 9.276971e-01 3.518291e-01 -1.248775e-01
   outer loop
     vertex -1.105727e-02 -1.126764e-02 5.000000e-04
     vertex -1.102615e-02 -1.134042e-02 5.261491e-04
     vertex -1.101453e-02 -1.138034e-02 5.000000e-04
   endloop
 endfacet
 facet normal -6.631227e-01 7.485107e-01 0.000000e+00
   outer loop
     vertex -1.187426e-02 -1.116844e-02 3.360000e-02
     vertex -1.178403e-02 -1.108851e-02 3.360000e-02
     vertex -1.178403e-02 -1.108851e-02 5.000000e-04
   endloop
 endfacet
 facet normal -8.229839e-01 5.680647e-01 0.000000e+00
   outer loop
     vertex -1.194273e-02 -1.126764e-02 3.360000e-02
     vertex -1.187426e-02 -1.116844e-02 5.000000e-04
     vertex -1.194273e-02 -1.126764e-02 5.000000e-04
   endloop
 endfacet
 facet normal 9.289662e-01 -3.523104e-01 -1.135748e-01
   outer loop
     vertex -1.101453e-02 -1.161966e-02 5.000000e-04
     vertex -1.103186e-02 -1.167563e-02 5.318629e-04
     vertex -1.105727e-02 -1.173236e-02 5.000000e-04
   endloop
 endfacet
 facet normal -8.229839e-01 5.680647e-01 0.000000e+00
   outer loop
     vertex -1.194273e-02 -1.126764e-02 3.360000e-02
     vertex -1.187426e-02 -1.116844e-02 3.360000e-02
     vertex -1.187426e-02 -1.116844e-02 5.000000e-04
   endloop
 endfacet
 facet normal 9.989055e-01 4.677302e-02 0.000000e+00
   outer loop
     vertex -1.100000e-02 -1.150000e-02 3.360000e-02
     vertex -1.100000e-02 -1.150000e-02 1.500000e-03
     vertex -1.100219e-02 -1.145328e-02 1.497812e-03
   endloop
 endfacet
 facet normal 6.631227e-01 -7.485107e-01 1.042116e-04
   outer loop
     vertex -1.112574e-02 -1.183156e-02 3.360000e-02
     vertex -1.121597e-02 -1.191149e-02 3.360000e-02
     vertex -1.115601e-02 -1.186287e-02 1.343988e-03
   endloop
 endfacet
 facet normal -9.350162e-01 3.546049e-01 0.000000e+00
   outer loop
     vertex -1.198547e-02 -1.138034e-02 3.360000e-02
     vertex -1.194273e-02 -1.126764e-02 5.000000e-04
     vertex -1.198547e-02 -1.138034e-02 5.000000e-04
   endloop
 endfacet
 facet normal -9.350162e-01 3.546049e-01 0.000000e+00
   outer loop
     vertex -1.198547e-02 -1.138034e-02 3.360000e-02
     vertex -1.194273e-02 -1.126764e-02 3.360000e-02
     vertex -1.194273e-02 -1.126764e-02 5.000000e-04
   endloop
 endfacet
 facet normal 8.418910e-01 5.396399e-01 -2.863564e-03
   outer loop
     vertex -1.110186e-02 -1.119753e-02 6.018614e-04
     vertex -1.105819e-02 -1.126590e-02 5.581906e-04
     vertex -1.105727e-02 -1.126764e-02 5.000000e-04
   endloop
 endfacet
 facet normal -9.927089e-01 1.205367e-01 0.000000e+00
   outer loop
     vertex -1.200000e-02 -1.150000e-02 3.360000e-02
     vertex -1.198547e-02 -1.138034e-02 5.000000e-04
     vertex -1.200000e-02 -1.150000e-02 5.000000e-04
   endloop
 endfacet
 facet normal -9.927089e-01 1.205367e-01 0.000000e+00
   outer loop
     vertex -1.200000e-02 -1.150000e-02 3.360000e-02
     vertex -1.198547e-02 -1.138034e-02 3.360000e-02
     vertex -1.198547e-02 -1.138034e-02 5.000000e-04
   endloop
 endfacet
 facet normal 8.225962e-01 5.677972e-01 -3.068854e-02
   outer loop
     vertex -1.112574e-02 -1.116844e-02 5.000000e-04
     vertex -1.110186e-02 -1.119753e-02 6.018614e-04
     vertex -1.105727e-02 -1.126764e-02 5.000000e-04
   endloop
 endfacet
 facet normal 9.742558e-01 -1.600909e-01 -1.587339e-01
   outer loop
     vertex -1.100219e-02 -1.154672e-02 5.021877e-04
     vertex -1.100873e-02 -1.159303e-02 5.087317e-04
     vertex -1.101453e-02 -1.161966e-02 5.000000e-04
   endloop
 endfacet
 facet normal 9.927089e-01 1.205367e-01 1.077786e-04
   outer loop
     vertex -1.101453e-02 -1.138034e-02 3.360000e-02
     vertex -1.100000e-02 -1.150000e-02 3.360000e-02
     vertex -1.100219e-02 -1.145328e-02 1.497812e-03
   endloop
 endfacet
 facet normal -9.927089e-01 -1.205367e-01 -0.000000e+00
   outer loop
     vertex -1.198547e-02 -1.161966e-02 3.360000e-02
     vertex -1.200000e-02 -1.150000e-02 5.000000e-04
     vertex -1.198547e-02 -1.161966e-02 5.000000e-04
   endloop
 endfacet
 facet normal 9.629582e-01 2.696507e-01 -4.971510e-05
   outer loop
     vertex -1.101453e-02 -1.138034e-02 3.360000e-02
     vertex -1.100873e-02 -1.140697e-02 1.491268e-03
     vertex -1.103186e-02 -1.132437e-02 1.468137e-03
   endloop
 endfacet
 facet normal 9.901630e-01 1.399185e-01 6.276459e-05
   outer loop
     vertex -1.101453e-02 -1.138034e-02 3.360000e-02
     vertex -1.100219e-02 -1.145328e-02 1.497812e-03
     vertex -1.100873e-02 -1.140697e-02 1.491268e-03
   endloop
 endfacet
 facet normal -9.927089e-01 -1.205367e-01 0.000000e+00
   outer loop
     vertex -1.198547e-02 -1.161966e-02 3.360000e-02
     vertex -1.200000e-02 -1.150000e-02 3.360000e-02
     vertex -1.200000e-02 -1.150000e-02 5.000000e-04
   endloop
 endfacet
 facet normal 9.186888e-01 -3.949821e-01 -4.847345e-06
   outer loop
     vertex -1.105727e-02 -1.173236e-02 3.360000e-02
     vertex -1.105819e-02 -1.173410e-02 1.441809e-03
     vertex -1.102615e-02 -1.165958e-02 1.473851e-03
   endloop
 endfacet
 facet normal 8.427239e-01 -5.383460e-01 5.087768e-06
   outer loop
     vertex -1.105727e-02 -1.173236e-02 3.360000e-02
     vertex -1.110186e-02 -1.180247e-02 1.398139e-03
     vertex -1.105819e-02 -1.173410e-02 1.441809e-03
   endloop
 endfacet
 facet normal -9.350162e-01 -3.546049e-01 -0.000000e+00
   outer loop
     vertex -1.194273e-02 -1.173236e-02 3.360000e-02
     vertex -1.198547e-02 -1.161966e-02 5.000000e-04
     vertex -1.194273e-02 -1.173236e-02 5.000000e-04
   endloop
 endfacet
 facet normal 8.229839e-01 -5.680647e-01 9.712022e-05
   outer loop
     vertex -1.105727e-02 -1.173236e-02 3.360000e-02
     vertex -1.112574e-02 -1.183156e-02 3.360000e-02
     vertex -1.110186e-02 -1.180247e-02 1.398139e-03
   endloop
 endfacet
 facet normal -9.350162e-01 -3.546049e-01 0.000000e+00
   outer loop
     vertex -1.194273e-02 -1.173236e-02 3.360000e-02
     vertex -1.198547e-02 -1.161966e-02 3.360000e-02
     vertex -1.198547e-02 -1.161966e-02 5.000000e-04
   endloop
 endfacet
 facet normal 9.704717e-01 -2.412152e-01 -5.127932e-05
   outer loop
     vertex -1.101453e-02 -1.161966e-02 3.360000e-02
     vertex -1.102615e-02 -1.165958e-02 1.473851e-03
     vertex -1.100658e-02 -1.158085e-02 1.493419e-03
   endloop
 endfacet
 facet normal 9.350162e-01 -3.546049e-01 1.024462e-04
   outer loop
     vertex -1.101453e-02 -1.161966e-02 3.360000e-02
     vertex -1.105727e-02 -1.173236e-02 3.360000e-02
     vertex -1.102615e-02 -1.165958e-02 1.473851e-03
   endloop
 endfacet
 facet normal 6.629688e-01 7.483371e-01 -2.154107e-02
   outer loop
     vertex -1.121597e-02 -1.108851e-02 5.000000e-04
     vertex -1.115601e-02 -1.113713e-02 6.560123e-04
     vertex -1.112574e-02 -1.116844e-02 5.000000e-04
   endloop
 endfacet
 facet normal -8.229839e-01 -5.680647e-01 -0.000000e+00
   outer loop
     vertex -1.187426e-02 -1.183156e-02 3.360000e-02
     vertex -1.194273e-02 -1.173236e-02 5.000000e-04
     vertex -1.187426e-02 -1.183156e-02 5.000000e-04
   endloop
 endfacet
 facet normal 9.967043e-01 -8.112082e-02 0.000000e+00
   outer loop
     vertex -1.100000e-02 -1.150000e-02 3.360000e-02
     vertex -1.100658e-02 -1.158085e-02 1.493419e-03
     vertex -1.100000e-02 -1.150000e-02 1.500000e-03
   endloop
 endfacet
 facet normal 9.927089e-01 -1.205367e-01 1.000792e-04
   outer loop
     vertex -1.100000e-02 -1.150000e-02 3.360000e-02
     vertex -1.101453e-02 -1.161966e-02 3.360000e-02
     vertex -1.100658e-02 -1.158085e-02 1.493419e-03
   endloop
 endfacet
 facet normal -8.229839e-01 -5.680647e-01 0.000000e+00
   outer loop
     vertex -1.187426e-02 -1.183156e-02 3.360000e-02
     vertex -1.194273e-02 -1.173236e-02 3.360000e-02
     vertex -1.194273e-02 -1.173236e-02 5.000000e-04
   endloop
 endfacet
 facet normal 6.276888e-01 7.784631e-01 1.406485e-03
   outer loop
     vertex -1.121922e-02 -1.108628e-02 7.192177e-04
     vertex -1.115601e-02 -1.113713e-02 6.560123e-04
     vertex -1.121597e-02 -1.108851e-02 5.000000e-04
   endloop
 endfacet
 facet normal 7.446029e-01 -6.675077e-01 -5.086230e-05
   outer loop
     vertex -1.115601e-02 -1.186287e-02 1.343988e-03
     vertex -1.110186e-02 -1.180247e-02 1.398139e-03
     vertex -1.112574e-02 -1.183156e-02 3.360000e-02
   endloop
 endfacet
 facet normal 9.350162e-01 3.546049e-01 1.133575e-04
   outer loop
     vertex -1.105727e-02 -1.126764e-02 3.360000e-02
     vertex -1.101453e-02 -1.138034e-02 3.360000e-02
     vertex -1.103186e-02 -1.132437e-02 1.468137e-03
   endloop
 endfacet
 facet normal 4.688457e-01 -8.832801e-01 1.364765e-05
   outer loop
     vertex -1.131467e-02 -1.196439e-02 1.185328e-03
     vertex -1.121922e-02 -1.191372e-02 1.280782e-03
     vertex -1.121597e-02 -1.191149e-02 3.360000e-02
   endloop
 endfacet
 facet normal 4.647232e-01 -8.854560e-01 2.975154e-05
   outer loop
     vertex -1.131467e-02 -1.196439e-02 1.185328e-03
     vertex -1.121597e-02 -1.191149e-02 3.360000e-02
     vertex -1.132270e-02 -1.196751e-02 3.360000e-02
   endloop
 endfacet
 facet normal 2.809737e-01 -9.597155e-01 -2.289828e-05
   outer loop
     vertex -1.140564e-02 -1.199102e-02 1.094360e-03
     vertex -1.131467e-02 -1.196439e-02 1.185328e-03
     vertex -1.132270e-02 -1.196751e-02 3.360000e-02
   endloop
 endfacet
 facet normal -6.631227e-01 -7.485107e-01 0.000000e+00
   outer loop
     vertex -1.178403e-02 -1.191149e-02 3.360000e-02
     vertex -1.187426e-02 -1.183156e-02 3.360000e-02
     vertex -1.187426e-02 -1.183156e-02 5.000000e-04
   endloop
 endfacet
 facet normal 2.393157e-01 -9.709418e-01 9.151701e-05
   outer loop
     vertex -1.140564e-02 -1.199102e-02 1.094360e-03
     vertex -1.132270e-02 -1.196751e-02 3.360000e-02
     vertex -1.143973e-02 -1.199635e-02 3.360000e-02
   endloop
 endfacet
 facet normal 9.484981e-02 -9.954916e-01 -6.402801e-05
   outer loop
     vertex -1.150000e-02 -1.200000e-02 1.000000e-03
     vertex -1.140564e-02 -1.199102e-02 1.094360e-03
     vertex -1.143973e-02 -1.199635e-02 3.360000e-02
   endloop
 endfacet
 facet normal -6.631227e-01 -7.485107e-01 -0.000000e+00
   outer loop
     vertex -1.178403e-02 -1.191149e-02 3.360000e-02
     vertex -1.187426e-02 -1.183156e-02 5.000000e-04
     vertex -1.178403e-02 -1.191149e-02 5.000000e-04
   endloop
 endfacet
 facet normal 1.400066e-01 -9.901035e-01 9.656956e-03
   outer loop
     vertex -1.137059e-02 -1.198296e-02 8.705905e-04
     vertex -1.150000e-02 -1.200000e-02 1.000000e-03
     vertex -1.143973e-02 -1.199635e-02 5.000000e-04
   endloop
 endfacet
 facet normal 3.932865e-01 -9.193312e-01 1.248700e-02
   outer loop
     vertex -1.125000e-02 -1.193301e-02 7.500000e-04
     vertex -1.137059e-02 -1.198296e-02 8.705905e-04
     vertex -1.132270e-02 -1.196751e-02 5.000000e-04
   endloop
 endfacet
 facet normal 6.191328e-01 -7.851088e-01 1.669766e-02
   outer loop
     vertex -1.114645e-02 -1.185355e-02 6.464466e-04
     vertex -1.125000e-02 -1.193301e-02 7.500000e-04
     vertex -1.121597e-02 -1.191149e-02 5.000000e-04
   endloop
 endfacet
 facet normal 7.930062e-01 -6.088629e-01 2.066726e-02
   outer loop
     vertex -1.107368e-02 -1.176125e-02 5.736799e-04
     vertex -1.114645e-02 -1.185355e-02 6.464466e-04
     vertex -1.112574e-02 -1.183156e-02 5.000000e-04
   endloop
 endfacet
 facet normal 9.046146e-01 -4.247993e-01 3.489932e-02
   outer loop
     vertex -1.103186e-02 -1.167563e-02 5.318629e-04
     vertex -1.107368e-02 -1.176125e-02 5.736799e-04
     vertex -1.105727e-02 -1.173236e-02 5.000000e-04
   endloop
 endfacet
 facet normal 9.650826e-01 -2.425764e-01 9.885495e-02
   outer loop
     vertex -1.100873e-02 -1.159303e-02 5.087317e-04
     vertex -1.103186e-02 -1.167563e-02 5.318629e-04
     vertex -1.101453e-02 -1.161966e-02 5.000000e-04
   endloop
 endfacet
 facet normal 8.920467e-01 1.083141e-01 -4.387719e-01
   outer loop
     vertex -1.100000e-02 -1.150000e-02 5.000000e-04
     vertex -1.101453e-02 -1.138034e-02 5.000000e-04
     vertex -1.100658e-02 -1.141915e-02 5.065806e-04
   endloop
 endfacet
 facet normal 5.305324e-01 -6.441829e-02 -8.452134e-01
   outer loop
     vertex -1.101453e-02 -1.161966e-02 5.000000e-04
     vertex -1.100000e-02 -1.150000e-02 5.000000e-04
     vertex -1.100219e-02 -1.154672e-02 5.021877e-04
   endloop
 endfacet
 facet normal 9.710679e-01 2.161318e-01 1.015592e-01
   outer loop
     vertex -1.102615e-02 -1.134042e-02 5.261491e-04
     vertex -1.100658e-02 -1.141915e-02 5.065806e-04
     vertex -1.101453e-02 -1.138034e-02 5.000000e-04
   endloop
 endfacet
 facet normal 9.191077e-01 3.939970e-01 2.714916e-03
   outer loop
     vertex -1.105819e-02 -1.126590e-02 5.581906e-04
     vertex -1.102615e-02 -1.134042e-02 5.261491e-04
     vertex -1.105727e-02 -1.126764e-02 5.000000e-04
   endloop
 endfacet
 facet normal 7.502426e-01 6.610366e-01 1.290859e-02
   outer loop
     vertex -1.115601e-02 -1.113713e-02 6.560123e-04
     vertex -1.110186e-02 -1.119753e-02 6.018614e-04
     vertex -1.112574e-02 -1.116844e-02 5.000000e-04
   endloop
 endfacet
 facet normal -0.000000e+00 -9.999734e-01 -7.290932e-03
   outer loop
     vertex -1.143973e-02 -1.199635e-02 5.000000e-04
     vertex -1.150000e-02 -1.200000e-02 1.000000e-03
     vertex -1.156027e-02 -1.199635e-02 5.000000e-04
   endloop
 endfacet
 facet normal 4.672599e-01 8.841177e-01 -2.044080e-03
   outer loop
     vertex -1.131467e-02 -1.103561e-02 8.146719e-04
     vertex -1.121922e-02 -1.108628e-02 7.192177e-04
     vertex -1.121597e-02 -1.108851e-02 5.000000e-04
   endloop
 endfacet
 facet normal 4.647210e-01 8.854519e-01 -3.064722e-03
   outer loop
     vertex -1.131467e-02 -1.103561e-02 8.146719e-04
     vertex -1.121597e-02 -1.108851e-02 5.000000e-04
     vertex -1.132270e-02 -1.103249e-02 5.000000e-04
   endloop
 endfacet
 facet normal -4.647232e-01 -8.854560e-01 0.000000e+00
   outer loop
     vertex -1.167730e-02 -1.196751e-02 3.360000e-02
     vertex -1.178403e-02 -1.191149e-02 3.360000e-02
     vertex -1.178403e-02 -1.191149e-02 5.000000e-04
   endloop
 endfacet
 facet normal 2.830689e-01 9.590968e-01 2.299198e-03
   outer loop
     vertex -1.140564e-02 -1.100898e-02 9.056404e-04
     vertex -1.131467e-02 -1.103561e-02 8.146719e-04
     vertex -1.132270e-02 -1.103249e-02 5.000000e-04
   endloop
 endfacet
 facet normal 9.947750e-02 9.950285e-01 4.735809e-03
   outer loop
     vertex -1.150000e-02 -1.100000e-02 1.000000e-03
     vertex -1.140564e-02 -1.100898e-02 9.056404e-04
     vertex -1.143973e-02 -1.100365e-02 5.000000e-04
   endloop
 endfacet
 facet normal 1.306546e-01 9.914279e-01 -1.306756e-04
   outer loop
     vertex -1.137059e-02 -1.101704e-02 1.129410e-03
     vertex -1.150000e-02 -1.100000e-02 1.000000e-03
     vertex -1.143973e-02 -1.100365e-02 3.360000e-02
   endloop
 endfacet
 facet normal 3.827900e-01 9.238354e-01 -1.248899e-04
   outer loop
     vertex -1.125000e-02 -1.106699e-02 1.250000e-03
     vertex -1.137059e-02 -1.101704e-02 1.129410e-03
     vertex -1.132270e-02 -1.103249e-02 3.360000e-02
   endloop
 endfacet
 facet normal 6.088324e-01 7.932989e-01 -1.127545e-04
   outer loop
     vertex -1.114645e-02 -1.114645e-02 1.353553e-03
     vertex -1.125000e-02 -1.106699e-02 1.250000e-03
     vertex -1.121597e-02 -1.108851e-02 3.360000e-02
   endloop
 endfacet
 facet normal -4.647232e-01 -8.854560e-01 -0.000000e+00
   outer loop
     vertex -1.167730e-02 -1.196751e-02 3.360000e-02
     vertex -1.178403e-02 -1.191149e-02 5.000000e-04
     vertex -1.167730e-02 -1.196751e-02 5.000000e-04
   endloop
 endfacet
 facet normal 7.853484e-01 6.190541e-01 -8.199332e-05
   outer loop
     vertex -1.107368e-02 -1.123875e-02 1.426320e-03
     vertex -1.114645e-02 -1.114645e-02 1.353553e-03
     vertex -1.112574e-02 -1.116844e-02 3.360000e-02
   endloop
 endfacet
 facet normal 8.985576e-01 4.388556e-01 -6.421225e-05
   outer loop
     vertex -1.103186e-02 -1.132437e-02 1.468137e-03
     vertex -1.107368e-02 -1.123875e-02 1.426320e-03
     vertex -1.105727e-02 -1.126764e-02 3.360000e-02
   endloop
 endfacet
 facet normal 8.229839e-01 5.680647e-01 9.034154e-05
   outer loop
     vertex -1.112574e-02 -1.116844e-02 3.360000e-02
     vertex -1.105727e-02 -1.126764e-02 3.360000e-02
     vertex -1.107368e-02 -1.123875e-02 1.426320e-03
   endloop
 endfacet
 facet normal 2.393047e-01 -9.708974e-01 -9.563158e-03
   outer loop
     vertex -1.132270e-02 -1.196751e-02 5.000000e-04
     vertex -1.137059e-02 -1.198296e-02 8.705905e-04
     vertex -1.143973e-02 -1.199635e-02 5.000000e-04
   endloop
 endfacet
 facet normal -6.037850e-02 -9.981756e-01 -0.000000e+00
   outer loop
     vertex -1.156027e-02 -1.199635e-02 3.360000e-02
     vertex -1.156027e-02 -1.199635e-02 5.000000e-04
     vertex -1.150000e-02 -1.200000e-02 1.000000e-03
   endloop
 endfacet
 facet normal -2.393157e-01 -9.709418e-01 0.000000e+00
   outer loop
     vertex -1.156027e-02 -1.199635e-02 3.360000e-02
     vertex -1.167730e-02 -1.196751e-02 3.360000e-02
     vertex -1.167730e-02 -1.196751e-02 5.000000e-04
   endloop
 endfacet
 facet normal -2.393157e-01 -9.709418e-01 -0.000000e+00
   outer loop
     vertex -1.156027e-02 -1.199635e-02 3.360000e-02
     vertex -1.167730e-02 -1.196751e-02 5.000000e-04
     vertex -1.156027e-02 -1.199635e-02 5.000000e-04
   endloop
 endfacet
 facet normal 2.393092e-01 9.709157e-01 -7.333438e-03
   outer loop
     vertex -1.143973e-02 -1.100365e-02 5.000000e-04
     vertex -1.140564e-02 -1.100898e-02 9.056404e-04
     vertex -1.132270e-02 -1.103249e-02 5.000000e-04
   endloop
 endfacet
 facet normal 6.631227e-01 7.485107e-01 8.476407e-05
   outer loop
     vertex -1.121597e-02 -1.108851e-02 3.360000e-02
     vertex -1.112574e-02 -1.116844e-02 3.360000e-02
     vertex -1.114645e-02 -1.114645e-02 1.353553e-03
   endloop
 endfacet
 facet normal 4.646841e-01 -8.853817e-01 -1.295916e-02
   outer loop
     vertex -1.121597e-02 -1.191149e-02 5.000000e-04
     vertex -1.125000e-02 -1.193301e-02 7.500000e-04
     vertex -1.132270e-02 -1.196751e-02 5.000000e-04
   endloop
 endfacet
 facet normal 0.000000e+00 -1.000000e+00 1.118271e-04
   outer loop
     vertex -1.143973e-02 -1.199635e-02 3.360000e-02
     vertex -1.156027e-02 -1.199635e-02 3.360000e-02
     vertex -1.150000e-02 -1.200000e-02 1.000000e-03
   endloop
 endfacet
 facet normal 0.000000e+00 9.999734e-01 -7.290932e-03
   outer loop
     vertex -1.156027e-02 -1.100365e-02 5.000000e-04
     vertex -1.150000e-02 -1.100000e-02 1.000000e-03
     vertex -1.143973e-02 -1.100365e-02 5.000000e-04
   endloop
 endfacet
 facet normal 4.647232e-01 8.854560e-01 1.001565e-04
   outer loop
     vertex -1.132270e-02 -1.103249e-02 3.360000e-02
     vertex -1.121597e-02 -1.108851e-02 3.360000e-02
     vertex -1.125000e-02 -1.106699e-02 1.250000e-03
   endloop
 endfacet
 facet normal 2.393157e-01 9.709418e-01 1.091504e-04
   outer loop
     vertex -1.143973e-02 -1.100365e-02 3.360000e-02
     vertex -1.132270e-02 -1.103249e-02 3.360000e-02
     vertex -1.137059e-02 -1.101704e-02 1.129410e-03
   endloop
 endfacet
 facet normal 6.630072e-01 -7.483804e-01 -1.866116e-02
   outer loop
     vertex -1.112574e-02 -1.183156e-02 5.000000e-04
     vertex -1.114645e-02 -1.185355e-02 6.464466e-04
     vertex -1.121597e-02 -1.191149e-02 5.000000e-04
   endloop
 endfacet
 facet normal 0.000000e+00 0.000000e+00 -1.000000e+00
   outer loop
     vertex -1.150000e-02 -1.150000e-02 5.000000e-04
     vertex -1.194273e-02 -1.126764e-02 5.000000e-04
     vertex -1.187426e-02 -1.116844e-02 5.000000e-04
   endloop
 endfacet
 facet normal 0.000000e+00 0.000000e+00 -1.000000e+00
   outer loop
     vertex -1.150000e-02 -1.150000e-02 5.000000e-04
     vertex -1.198547e-02 -1.138034e-02 5.000000e-04
     vertex -1.194273e-02 -1.126764e-02 5.000000e-04
   endloop
 endfacet
 facet normal 0.000000e+00 0.000000e+00 -1.000000e+00
   outer loop
     vertex -1.150000e-02 -1.150000e-02 5.000000e-04
     vertex -1.200000e-02 -1.150000e-02 5.000000e-04
     vertex -1.198547e-02 -1.138034e-02 5.000000e-04
   endloop
 endfacet
 facet normal -0.000000e+00 0.000000e+00 -1.000000e+00
   outer loop
     vertex -1.150000e-02 -1.150000e-02 5.000000e-04
     vertex -1.198547e-02 -1.161966e-02 5.000000e-04
     vertex -1.200000e-02 -1.150000e-02 5.000000e-04
   endloop
 endfacet
 facet normal 0.000000e+00 0.000000e+00 -1.000000e+00
   outer loop
     vertex -1.150000e-02 -1.150000e-02 5.000000e-04
     vertex -1.194273e-02 -1.173236e-02 5.000000e-04
     vertex -1.198547e-02 -1.161966e-02 5.000000e-04
   endloop
 endfacet
 facet normal 0.000000e+00 0.000000e+00 -1.000000e+00
   outer loop
     vertex -1.150000e-02 -1.150000e-02 5.000000e-04
     vertex -1.187426e-02 -1.183156e-02 5.000000e-04
     vertex -1.194273e-02 -1.173236e-02 5.000000e-04
   endloop
 endfacet
 facet normal 0.000000e+00 0.000000e+00 -1.000000e+00
   outer loop
     vertex -1.150000e-02 -1.150000e-02 5.000000e-04
     vertex -1.178403e-02 -1.191149e-02 5.000000e-04
     vertex -1.187426e-02 -1.183156e-02 5.000000e-04
   endloop
 endfacet
 facet normal 0.000000e+00 0.000000e+00 -1.000000e+00
   outer loop
     vertex -1.150000e-02 -1.150000e-02 5.000000e-04
     vertex -1.167730e-02 -1.196751e-02 5.000000e-04
     vertex -1.178403e-02 -1.191149e-02 5.000000e-04
   endloop
 endfacet
 facet normal 0.000000e+00 0.000000e+00 -1.000000e+00
   outer loop
     vertex -1.150000e-02 -1.150000e-02 5.000000e-04
     vertex -1.156027e-02 -1.199635e-02 5.000000e-04
     vertex -1.167730e-02 -1.196751e-02 5.000000e-04
   endloop
 endfacet
 facet normal 0.000000e+00 -0.000000e+00 -1.000000e+00
   outer loop
     vertex -1.150000e-02 -1.150000e-02 5.000000e-04
     vertex -1.143973e-02 -1.199635e-02 5.000000e-04
     vertex -1.156027e-02 -1.199635e-02 5.000000e-04
   endloop
 endfacet
 facet normal 0.000000e+00 0.000000e+00 -1.000000e+00
   outer loop
     vertex -1.150000e-02 -1.150000e-02 5.000000e-04
     vertex -1.132270e-02 -1.196751e-02 5.000000e-04
     vertex -1.143973e-02 -1.199635e-02 5.000000e-04
   endloop
 endfacet
 facet normal 0.000000e+00 0.000000e+00 -1.000000e+00
   outer loop
     vertex -1.150000e-02 -1.150000e-02 5.000000e-04
     vertex -1.121597e-02 -1.191149e-02 5.000000e-04
     vertex -1.132270e-02 -1.196751e-02 5.000000e-04
   endloop
 endfacet
 facet normal -0.000000e+00 0.000000e+00 -1.000000e+00
   outer loop
     vertex -1.112574e-02 -1.183156e-02 5.000000e-04
     vertex -1.121597e-02 -1.191149e-02 5.000000e-04
     vertex -1.150000e-02 -1.150000e-02 5.000000e-04
   endloop
 endfacet
 facet normal 0.000000e+00 -0.000000e+00 -1.000000e+00
   outer loop
     vertex -1.178403e-02 -1.108851e-02 5.000000e-04
     vertex -1.150000e-02 -1.150000e-02 5.000000e-04
     vertex -1.187426e-02 -1.116844e-02 5.000000e-04
   endloop
 endfacet
 facet normal -0.000000e+00 0.000000e+00 -1.000000e+00
   outer loop
     vertex -1.105727e-02 -1.173236e-02 5.000000e-04
     vertex -1.112574e-02 -1.183156e-02 5.000000e-04
     vertex -1.150000e-02 -1.150000e-02 5.000000e-04
   endloop
 endfacet
 facet normal 0.000000e+00 -0.000000e+00 -1.000000e+00
   outer loop
     vertex -1.167730e-02 -1.103249e-02 5.000000e-04
     vertex -1.150000e-02 -1.150000e-02 5.000000e-04
     vertex -1.178403e-02 -1.108851e-02 5.000000e-04
   endloop
 endfacet
 facet normal -0.000000e+00 0.000000e+00 -1.000000e+00
   outer loop
     vertex -1.101453e-02 -1.161966e-02 5.000000e-04
     vertex -1.105727e-02 -1.173236e-02 5.000000e-04
     vertex -1.150000e-02 -1.150000e-02 5.000000e-04
   endloop
 endfacet
 facet normal 0.000000e+00 -0.000000e+00 -1.000000e+00
   outer loop
     vertex -1.156027e-02 -1.100365e-02 5.000000e-04
     vertex -1.150000e-02 -1.150000e-02 5.000000e-04
     vertex -1.167730e-02 -1.103249e-02 5.000000e-04
   endloop
 endfacet
 facet normal -0.000000e+00 0.000000e+00 -1.000000e+00
   outer loop
     vertex -1.100000e-02 -1.150000e-02 5.000000e-04
     vertex -1.101453e-02 -1.161966e-02 5.000000e-04
     vertex -1.150000e-02 -1.150000e-02 5.000000e-04
   endloop
 endfacet
 facet normal -0.000000e+00 0.000000e+00 -1.000000e+00
   outer loop
     vertex -1.143973e-02 -1.100365e-02 5.000000e-04
     vertex -1.150000e-02 -1.150000e-02 5.000000e-04
     vertex -1.156027e-02 -1.100365e-02 5.000000e-04
   endloop
 endfacet
 facet normal 0.000000e+00 -0.000000e+00 -1.000000e+00
   outer loop
     vertex -1.101453e-02 -1.138034e-02 5.000000e-04
     vertex -1.100000e-02 -1.150000e-02 5.000000e-04
     vertex -1.150000e-02 -1.150000e-02 5.000000e-04
   endloop
 endfacet
 facet normal -0.000000e+00 0.000000e+00 -1.000000e+00
   outer loop
     vertex -1.132270e-02 -1.103249e-02 5.000000e-04
     vertex -1.150000e-02 -1.150000e-02 5.000000e-04
     vertex -1.143973e-02 -1.100365e-02 5.000000e-04
   endloop
 endfacet
 facet normal 0.000000e+00 -0.000000e+00 -1.000000e+00
   outer loop
     vertex -1.105727e-02 -1.126764e-02 5.000000e-04
     vertex -1.101453e-02 -1.138034e-02 5.000000e-04
     vertex -1.150000e-02 -1.150000e-02 5.000000e-04
   endloop
 endfacet
 facet normal -0.000000e+00 0.000000e+00 -1.000000e+00
   outer loop
     vertex -1.121597e-02 -1.108851e-02 5.000000e-04
     vertex -1.150000e-02 -1.150000e-02 5.000000e-04
     vertex -1.132270e-02 -1.103249e-02 5.000000e-04
   endloop
 endfacet
 facet normal 0.000000e+00 -0.000000e+00 -1.000000e+00
   outer loop
     vertex -1.112574e-02 -1.116844e-02 5.000000e-04
     vertex -1.105727e-02 -1.126764e-02 5.000000e-04
     vertex -1.150000e-02 -1.150000e-02 5.000000e-04
   endloop
 endfacet
 facet normal -0.000000e+00 0.000000e+00 -1.000000e+00
   outer loop
     vertex -1.112574e-02 -1.116844e-02 5.000000e-04
     vertex -1.150000e-02 -1.150000e-02 5.000000e-04
     vertex -1.121597e-02 -1.108851e-02 5.000000e-04
   endloop
 endfacet
 facet normal 0.000000e+00 0.000000e+00 1.000000e+00
   outer loop
     vertex -1.112574e-02 -1.116844e-02 3.360000e-02
     vertex -1.100000e-02 -1.150000e-02 3.360000e-02
     vertex -1.101453e-02 -1.138034e-02 3.360000e-02
   endloop
 endfacet
 facet normal 0.000000e+00 0.000000e+00 1.000000e+00
   outer loop
     vertex -1.112574e-02 -1.116844e-02 3.360000e-02
     vertex -1.101453e-02 -1.138034e-02 3.360000e-02
     vertex -1.105727e-02 -1.126764e-02 3.360000e-02
   endloop
 endfacet
 facet normal 0.000000e+00 0.000000e+00 1.000000e+00
   outer loop
     vertex -1.112574e-02 -1.116844e-02 3.360000e-02
     vertex -1.121597e-02 -1.108851e-02 3.360000e-02
     vertex -1.132270e-02 -1.103249e-02 3.360000e-02
   endloop
 endfacet
 facet normal 0.000000e+00 0.000000e+00 1.000000e+00
   outer loop
     vertex -1.112574e-02 -1.116844e-02 3.360000e-02
     vertex -1.132270e-02 -1.103249e-02 3.360000e-02
     vertex -1.143973e-02 -1.100365e-02 3.360000e-02
   endloop
 endfacet
 facet normal 0.000000e+00 0.000000e+00 1.000000e+00
   outer loop
     vertex -1.112574e-02 -1.116844e-02 3.360000e-02
     vertex -1.143973e-02 -1.100365e-02 3.360000e-02
     vertex -1.156027e-02 -1.100365e-02 3.360000e-02
   endloop
 endfacet
 facet normal 0.000000e+00 0.000000e+00 1.000000e+00
   outer loop
     vertex -1.112574e-02 -1.116844e-02 3.360000e-02
     vertex -1.156027e-02 -1.100365e-02 3.360000e-02
     vertex -1.167730e-02 -1.103249e-02 3.360000e-02
   endloop
 endfacet
 facet normal 0.000000e+00 0.000000e+00 1.000000e+00
   outer loop
     vertex -1.112574e-02 -1.116844e-02 3.360000e-02
     vertex -1.167730e-02 -1.103249e-02 3.360000e-02
     vertex -1.178403e-02 -1.108851e-02 3.360000e-02
   endloop
 endfacet
 facet normal 0.000000e+00 0.000000e+00 1.000000e+00
   outer loop
     vertex -1.112574e-02 -1.116844e-02 3.360000e-02
     vertex -1.178403e-02 -1.108851e-02 3.360000e-02
     vertex -1.187426e-02 -1.116844e-02 3.360000e-02
   endloop
 endfacet
 facet normal 0.000000e+00 0.000000e+00 1.000000e+00
   outer loop
     vertex -1.112574e-02 -1.116844e-02 3.360000e-02
     vertex -1.187426e-02 -1.116844e-02 3.360000e-02
     vertex -1.194273e-02 -1.126764e-02 3.360000e-02
   endloop
 endfacet
 facet normal 0.000000e+00 0.000000e+00 1.000000e+00
   outer loop
     vertex -1.112574e-02 -1.116844e-02 3.360000e-02
     vertex -1.194273e-02 -1.126764e-02 3.360000e-02
     vertex -1.198547e-02 -1.138034e-02 3.360000e-02
   endloop
 endfacet
 facet normal 0.000000e+00 0.000000e+00 1.000000e+00
   outer loop
     vertex -1.112574e-02 -1.116844e-02 3.360000e-02
     vertex -1.198547e-02 -1.138034e-02 3.360000e-02
     vertex -1.200000e-02 -1.150000e-02 3.360000e-02
   endloop
 endfacet
 facet normal 0.000000e+00 0.000000e+00 1.000000e+00
   outer loop
     vertex -1.112574e-02 -1.116844e-02 3.360000e-02
     vertex -1.200000e-02 -1.150000e-02 3.360000e-02
     vertex -1.198547e-02 -1.161966e-02 3.360000e-02
   endloop
 endfacet
 facet normal 0.000000e+00 0.000000e+00 1.000000e+00
   outer loop
     vertex -1.112574e-02 -1.116844e-02 3.360000e-02
     vertex -1.198547e-02 -1.161966e-02 3.360000e-02
     vertex -1.194273e-02 -1.173236e-02 3.360000e-02
   endloop
 endfacet
 facet normal 0.000000e+00 0.000000e+00 1.000000e+00
   outer loop
     vertex -1.112574e-02 -1.116844e-02 3.360000e-02
     vertex -1.194273e-02 -1.173236e-02 3.360000e-02
     vertex -1.187426e-02 -1.183156e-02 3.360000e-02
   endloop
 endfacet
 facet normal 0.000000e+00 0.000000e+00 1.000000e+00
   outer loop
     vertex -1.112574e-02 -1.116844e-02 3.360000e-02
     vertex -1.187426e-02 -1.183156e-02 3.360000e-02
     vertex -1.178403e-02 -1.191149e-02 3.360000e-02
   endloop
 endfacet
 facet normal 0.000000e+00 0.000000e+00 1.000000e+00
   outer loop
     vertex -1.112574e-02 -1.116844e-02 3.360000e-02
     vertex -1.178403e-02 -1.191149e-02 3.360000e-02
     vertex -1.167730e-02 -1.196751e-02 3.360000e-02
   endloop
 endfacet
 facet normal 0.000000e+00 0.000000e+00 1.000000e+00
   outer loop
     vertex -1.112574e-02 -1.116844e-02 3.360000e-02
     vertex -1.167730e-02 -1.196751e-02 3.360000e-02
     vertex -1.156027e-02 -1.199635e-02 3.360000e-02
   endloop
 endfacet
 facet normal 0.000000e+00 0.000000e+00 1.000000e+00
   outer loop
     vertex -1.112574e-02 -1.116844e-02 3.360000e-02
     vertex -1.156027e-02 -1.199635e-02 3.360000e-02
     vertex -1.143973e-02 -1.199635e-02 3.360000e-02
   endloop
 endfacet
 facet normal 0.000000e+00 0.000000e+00 1.000000e+00
   outer loop
     vertex -1.112574e-02 -1.116844e-02 3.360000e-02
     vertex -1.143973e-02 -1.199635e-02 3.360000e-02
     vertex -1.132270e-02 -1.196751e-02 3.360000e-02
   endloop
 endfacet
 facet normal 0.000000e+00 0.000000e+00 1.000000e+00
   outer loop
     vertex -1.112574e-02 -1.116844e-02 3.360000e-02
     vertex -1.132270e-02 -1.196751e-02 3.360000e-02
     vertex -1.121597e-02 -1.191149e-02 3.360000e-02
   endloop
 endfacet
 facet normal 0.000000e+00 0.000000e+00 1.000000e+00
   outer loop
     vertex -1.112574e-02 -1.116844e-02 3.360000e-02
     vertex -1.121597e-02 -1.191149e-02 3.360000e-02
     vertex -1.112574e-02 -1.183156e-02 3.360000e-02
   endloop
 endfacet
 facet normal 0.000000e+00 0.000000e+00 1.000000e+00
   outer loop
     vertex -1.112574e-02 -1.116844e-02 3.360000e-02
     vertex -1.112574e-02 -1.183156e-02 3.360000e-02
     vertex -1.105727e-02 -1.173236e-02 3.360000e-02
   endloop
 endfacet
 facet normal 0.000000e+00 0.000000e+00 1.000000e+00
   outer loop
     vertex -1.112574e-02 -1.116844e-02 3.360000e-02
     vertex -1.105727e-02 -1.173236e-02 3.360000e-02
     vertex -1.101453e-02 -1.161966e-02 3.360000e-02
   endloop
 endfacet
 facet normal 0.000000e+00 0.000000e+00 1.000000e+00
   outer loop
     vertex -1.112574e-02 -1.116844e-02 3.360000e-02
     vertex -1.101453e-02 -1.161966e-02 3.360000e-02
     vertex -1.100000e-02 -1.150000e-02 3.360000e-02
   endloop
 endfacet
endsolid shape
